HIERARCHY
ROOT pelvis
{
  OFFSET 0 100 0
  CHANNELS 6 Xposition Yposition Zposition Zrotation Xrotation Yrotation
  JOINT pelvis_right_femur
  {
    OFFSET -10.78128 -3.44521 -0.5502486
    CHANNELS 3 Zrotation Xrotation Yrotation
    JOINT right_femur_tibia
    {
      OFFSET -0.8047443 -44.0398 -0.1307829
      CHANNELS 3 Zrotation Xrotation Yrotation
      JOINT right_tibia_foot
      {
        OFFSET 3.006224 -47.83518 -5
        CHANNELS 3 Zrotation Xrotation Yrotation
        End Site
        {
          OFFSET 0 -5 15
        }
      }
    }
  }
  JOINT pelvis_left_femur
  {
    OFFSET 10.78128 -3.44521 -0.5502486
    CHANNELS 3 Zrotation Xrotation Yrotation
    JOINT left_femur_tibia
    {
      OFFSET 0.8047443 -44.0398 -0.1307829
      CHANNELS 3 Zrotation Xrotation Yrotation
      JOINT left_tibia_foot
      {
        OFFSET -4.370144 -48.10324 -4.275266
        CHANNELS 3 Zrotation Xrotation Yrotation
        End Site
        {
          OFFSET 0 -5 15
        }
      }
    }
  }
  JOINT pelvis_spine1
  {
    OFFSET 0 6.468898 -3.129235
    CHANNELS 3 Zrotation Xrotation Yrotation
    JOINT spine1
    {
      OFFSET 0 23.15396 4.99043
      CHANNELS 3 Zrotation Xrotation Yrotation
      JOINT spine2
      {
        OFFSET 0 20.79997 -5.064912
        CHANNELS 3 Zrotation Xrotation Yrotation
        JOINT neck
        {
          OFFSET 0 14.38658 9.616178
          CHANNELS 3 Zrotation Xrotation Yrotation
          End Site
          {
            OFFSET 0 20 0
          }
        }
      }
      JOINT right_manubrium
      {
        OFFSET -5.722621 16.35077 3.967754
        CHANNELS 3 Zrotation Xrotation Yrotation
        JOINT right_clavicle
        {
          OFFSET -13.16364 1.694482 -4.693211
          CHANNELS 3 Zrotation Xrotation Yrotation
          JOINT right_humerus
          {
            OFFSET -28.5034 -0.3100689 -2.792744
            CHANNELS 3 Zrotation Xrotation Yrotation
            JOINT right_radius
            {
              OFFSET -25.15693 0.02248979 -1.271978
              CHANNELS 3 Zrotation Xrotation Yrotation
              End Site
              {
                OFFSET -15 0 0
              }
            }
          }
        }
      }
      JOINT left_manubrium
      {
        OFFSET 5.722621 16.35077 3.967754
        CHANNELS 3 Zrotation Xrotation Yrotation
        JOINT left_clavicle
        {
          OFFSET 13.16364 1.694482 -4.693211
          CHANNELS 3 Zrotation Xrotation Yrotation
          JOINT left_humerus
          {
            OFFSET 29.39168 -1.063119 -2.237045
            CHANNELS 3 Zrotation Xrotation Yrotation
            JOINT left_radius
            {
              OFFSET 24.59957 -0.9528479 0.9047498
              CHANNELS 3 Zrotation Xrotation Yrotation
              End Site
              {
                OFFSET 15 -0 -0
              }
            }
          }
        }
      }
    }
  }
}
MOTION
Frames: 11
Frame Time: 0.0416666666667
0 103.5113 0 0.1979749 -3.327696 -0.1097331 3.673529 -11.83057 7.242211 -0 37.08599 -0 -9.996559 -16.94827 -5.034094 -5.173082 9.791085 -21.60225 -0 5.614358 -0 7.336786 -13.94488 24.63898 -2.040716 -2.218398 5.091298 2.420946 10.0085 -6.88196 1.421737 21.15225 6.868502 3.21781 -24.85161 9.660078 5.748881 -18.90548 11.49227 85.28948 36.61686 -17.86566 -0 0 14.79851 -8.278574 9.081579 4.95027 6.439767 -20.01471 -1.549199 -92.0443 21.31067 20.81729 0 0 -16.3928 13.28466 13.01508 -1.796957
0.2316059 103.3879 1.835879 0.2111328 -2.862091 -0.1957832 3.855305 -14.0326 7.446556 -0 36.84267 -0 -9.372379 -16.08012 -4.760382 -5.404461 10.71991 -21.91629 -0 5.598571 -0 7.098824 -15.13669 24.78111 -2.027283 -2.25958 4.909749 2.544715 9.976037 -7.031245 1.497127 21.13713 6.927975 3.107319 -25.09202 9.97934 5.737719 -18.63144 11.46768 85.85835 36.94957 -18.56925 -0 0 14.1082 -7.925596 9.395516 4.728875 6.491713 -20.13799 -1.444723 -91.55082 21.31226 20.05283 0 0 -17.29195 13.80989 13.07126 -2.303389
0.434088 103.194 3.666842 0.1437269 -1.940678 -0.2219416 4.41093 -18.23048 7.583735 -0 35.286 -0 -8.332407 -14.53108 -4.263808 -5.688229 12.12508 -22.01473 -0 5.733161 -0 6.699517 -17.19021 24.63649 -2.021127 -2.24937 4.838857 2.639273 9.981627 -7.168337 1.460375 21.11233 6.890846 3.045674 -25.21423 9.902967 5.693085 -18.5792 11.488 86.11074 36.86464 -18.91767 -0 0 13.80326 -7.864469 9.299609 4.85351 6.388432 -20.24165 -1.476813 -91.36614 21.6312 19.87441 0 0 -17.82224 13.37723 12.97619 -1.682049
0.6174924 102.9087 5.574561 0.05344102 -1.060609 -0.1876228 4.899635 -21.58734 7.611873 -0 33.3875 -0 -7.43266 -13.28707 -3.837769 -5.86216 13.02479 -21.86721 -0 5.852943 -0 6.165036 -18.81562 24.22261 -2.008411 -2.267012 4.74731 2.746135 9.965542 -7.328518 1.444064 21.0786 6.885096 2.985644 -25.4128 9.925246 5.654314 -18.50102 11.48562 86.48689 36.82679 -19.45828 -0 0 13.45124 -7.632135 9.206493 4.812355 6.342746 -20.3685 -1.481244 -91.16743 21.97008 19.61597 0 0 -18.4825 13.12306 12.92066 -1.260625
0.7822223 102.5242 7.672786 -0.1192664 0.05983475 -0.07911474 5.53295 -25.1898 7.593963 -0 30.65635 -0 -6.369636 -12.12828 -3.433025 -5.955624 13.79998 -21.42121 -0 6.210861 -0 5.294571 -20.43201 23.31833 -1.997174 -2.281811 4.651933 2.849357 9.951019 -7.481695 1.431676 21.04937 6.881934 2.92556 -25.59678 9.954953 5.618423 -18.40989 11.48444 86.85625 36.808 -19.97835 -0 0 13.0828 -7.424303 9.146692 4.779903 6.299997 -20.49258 -1.483666 -90.94728 22.2709 19.32546 0 0 -19.13242 12.91208 12.87042 -0.8956857
0.9330061 102.0468 10.06029 -0.3392316 1.174452 0.1058493 6.143246 -28.24925 7.457559 -0 27.6701 -0 -5.440995 -11.03651 -3.07542 -5.964669 14.30973 -20.74094 -0 6.933004 -0 4.225702 -21.64554 22.05834 -1.986047 -2.29802 4.553373 2.951398 9.935195 -7.633397 1.422649 21.0215 6.883044 2.866735 -25.78037 9.99617 5.5845 -18.3113 11.48159 87.23341 36.79906 -20.50627 -0 0 12.70495 -7.212368 9.100038 4.735167 6.264755 -20.61797 -1.483413 -90.71731 22.55521 19.0141 0 0 -19.78668 12.73742 12.82681 -0.5758771
1.07311 101.5071 12.84746 -0.6230983 2.253102 0.3659841 6.745899 -30.75007 7.186144 -0 24.53743 -0 -4.697658 -9.982179 -2.786266 -5.878967 14.61266 -19.80942 -0 8.318089 -0 2.963001 -22.3487 20.39788 -1.977272 -2.307329 4.453983 3.048558 9.925377 -7.775894 1.413971 20.99866 6.881733 2.807338 -25.93755 10.02878 5.552614 -18.20347 11.48386 87.58691 36.80181 -20.98758 -0 0 12.31635 -7.051974 9.087612 4.724691 6.223342 -20.73887 -1.486213 -90.46511 22.79605 18.68013 0 0 -20.41486 12.57852 12.78046 -0.2817378
1.206509 100.9571 16.11179 -0.9532774 3.130325 0.686194 7.287922 -32.37841 6.770609 -0 21.69791 -0 -4.300055 -9.01064 -2.603636 -5.696884 14.70341 -18.69485 -0 10.58197 -0 1.679502 -22.33777 18.49012 -1.971647 -2.306614 4.356343 3.138805 9.924626 -7.906255 1.40334 20.98167 6.875109 2.747918 -26.05742 10.04175 5.522942 -18.08864 11.49383 87.90164 36.813 -21.40011 -0 0 11.92333 -6.965063 9.112337 4.765882 6.17046 -20.85331 -1.495811 -90.19117 22.98615 18.33057 0 0 -21.00086 12.41983 12.72621 0.002626651
1.337183 100.4775 19.90066 -1.317328 3.695843 1.040819 7.766631 -32.97272 6.230089 -0 19.46496 -0 -4.333918 -8.19358 -2.558154 -5.414646 14.56313 -17.44215 -0 13.97768 -0 0.5165364 -21.48822 16.45503 -1.970462 -2.291052 4.263776 3.218637 9.937331 -8.019255 1.388152 20.97229 6.859385 2.689195 -26.12241 10.02066 5.496029 -17.96839 11.51509 88.15489 36.83058 -21.7095 -0 0 11.53351 -6.985735 9.182443 4.884106 6.099142 -20.95783 -1.517128 -89.89417 23.11072 17.97189 0 0 -21.52002 12.24477 12.65729 0.2924687
1.469283 100.1723 24.21237 -1.685873 3.864675 1.394746 8.175775 -32.40906 5.611188 -0 18.10383 -0 -4.831918 -7.620149 -2.658066 -5.039239 14.10585 -16.12004 -0 18.6305 -0 -0.4042685 -19.76915 14.44609 -1.974491 -2.257635 4.180817 3.283966 9.965884 -8.109918 1.366318 20.97155 6.832233 2.633496 -26.1191 9.954529 5.47243 -17.84704 11.54921 88.32676 36.84901 -21.88927 -0 0 11.16225 -7.136417 9.297763 5.093119 6.006285 -21.04878 -1.554248 -89.58127 23.16206 17.61803 0 0 -21.94663 12.03864 12.56888 0.60059
1.606498 100.1553 28.9951 -2.021293 3.629502 1.711697 8.499722 -30.65825 4.963128 -0 17.66414 -0 -5.741055 -7.34362 -2.870015 -4.582641 13.15578 -14.78317 -0 24.52853 -0 -1.080003 -17.26939 12.56459 -1.984387 -2.203624 4.113217 3.329428 10.01191 -8.171789 1.336333 20.98063 6.791725 2.583952 -26.03352 9.833819 5.452563 -17.73034 11.59687 88.39534 36.8609 -21.91084 -0 0 10.8305 -7.438139 9.455877 5.403481 5.890385 -21.12086 -1.610745 -89.26402 23.13292 17.2873 0 0 -22.24943 11.78855 12.45682 0.9366224
